<?xml version="1.0"?>
<svg xmlns="http://www.w3.org/2000/svg" xmlns:xlink="http://www.w3.org/1999/xlink" xmlns:svgjs="http://svgjs.com/svgjs" version="1.1" width="512" height="512" x="0" y="0" viewBox="0 0 512 512" style="enable-background:new 0 0 512 512" xml:space="preserve" class=""><g>
<circle xmlns="http://www.w3.org/2000/svg" style="" cx="256" cy="256" r="256" fill="#fbfbfb" data-original="#324a5e" class=""/>
<path xmlns="http://www.w3.org/2000/svg" style="" d="M322.569,503.239c90.081-24.195,160.53-96.296,182.362-187.32L372.224,183.213l-58.949,26.726  l-76.597-76.74l-47.435,90.712l6.38,30.455l74.15,74.15l-113.04,8.89L322.569,503.239z" fill="#e7e7e7" data-original="#2b3b4e" class=""/>
<g xmlns="http://www.w3.org/2000/svg">
	<path style="" d="M372.224,183.213H241.697v-37.926c0-6.654-3.831-12.714-9.84-15.57   c-6.01-2.855-13.128-1.996-18.285,2.205l-67.722,55.165c-4.02,3.274-6.353,8.183-6.353,13.365s2.332,10.092,6.353,13.365   l67.722,55.165c3.136,2.555,6.996,3.874,10.89,3.874c2.513,0,5.041-0.548,7.397-1.669c6.01-2.857,9.84-8.916,9.84-15.57v-37.926   h130.527v-34.478H372.224z" fill="#111111" data-original="#ffffff" class=""/>
	<path style="" d="M382.904,306.635l-67.722-53.441c-5.185-4.093-12.252-4.861-18.199-1.979   c-5.944,2.881-9.719,8.907-9.719,15.513v36.202H156.736v34.478h130.527v36.202c0,6.606,3.775,12.631,9.719,15.513   c2.389,1.158,4.96,1.726,7.516,1.726c3.806,0,7.58-1.258,10.681-3.706l67.722-53.441c4.143-3.269,6.559-8.256,6.559-13.533   S387.046,309.905,382.904,306.635z" fill="#111111" data-original="#ffffff" class=""/>
</g>
<g xmlns="http://www.w3.org/2000/svg">
	<path style="" d="M139.517,200.835c0.112,5.041,2.41,9.79,6.33,12.983l67.722,55.165   c3.136,2.555,6.996,3.874,10.89,3.874c2.513,0,5.041-0.548,7.397-1.669c6.01-2.857,9.84-8.916,9.84-15.57v-37.926h130.527v-16.856   H139.517z" fill="#111111" data-original="#e6f3ff" class=""/>
	<path style="" d="M156.736,318.923v18.484h130.527v36.202c0,6.606,3.775,12.631,9.719,15.513   c2.389,1.158,4.96,1.726,7.516,1.726c3.806,0,7.58-1.258,10.681-3.706l67.722-53.441c4.143-3.269,6.559-8.256,6.559-13.533   c0-0.419-0.041-0.831-0.071-1.245H156.736z" fill="#111111" data-original="#e6f3ff" class=""/>
</g>
<g xmlns="http://www.w3.org/2000/svg">
</g>
<g xmlns="http://www.w3.org/2000/svg">
</g>
<g xmlns="http://www.w3.org/2000/svg">
</g>
<g xmlns="http://www.w3.org/2000/svg">
</g>
<g xmlns="http://www.w3.org/2000/svg">
</g>
<g xmlns="http://www.w3.org/2000/svg">
</g>
<g xmlns="http://www.w3.org/2000/svg">
</g>
<g xmlns="http://www.w3.org/2000/svg">
</g>
<g xmlns="http://www.w3.org/2000/svg">
</g>
<g xmlns="http://www.w3.org/2000/svg">
</g>
<g xmlns="http://www.w3.org/2000/svg">
</g>
<g xmlns="http://www.w3.org/2000/svg">
</g>
<g xmlns="http://www.w3.org/2000/svg">
</g>
<g xmlns="http://www.w3.org/2000/svg">
</g>
<g xmlns="http://www.w3.org/2000/svg">
</g>
</g></svg>
